<?xml version="1.0" encoding="utf-8"?>
<!-- Svg Vector Icons : http://www.onlinewebfonts.com/icon -->
<!DOCTYPE svg PUBLIC "-//W3C//DTD SVG 1.1//EN" "http://www.w3.org/Graphics/SVG/1.1/DTD/svg11.dtd">
<svg version="1.1" xmlns="http://www.w3.org/2000/svg" xmlns:xlink="http://www.w3.org/1999/xlink" x="0px" y="0px" viewBox="0 0 256 256" enable-background="new 0 0 256 256" xml:space="preserve">
<metadata> Svg Vector Icons : http://www.onlinewebfonts.com/icon </metadata>
<g><g><path fill="#000000" d="M128,10C62.8,10,10,62.8,10,128c0,65.2,52.8,118,118,118c65.2,0,118-52.8,118-118C246,62.8,193.2,10,128,10L128,10L128,10z M112.4,186.7c-11.9,11.9-31.2,11.9-43.1,0c-11.9-11.9-11.9-31.2,0-43.1L99.8,113c11.9-11.9,31.2-11.9,43.1,0c0.3,0.3,0.6,0.6,0.9,1c0.2,0.1,0.4,0.3,0.5,0.5c0.5,0.5,0.9,1,1.2,1.6c0,0,0.1,0.1,0.1,0.1l0,0c1.5,2.8,1,6.3-1.3,8.6c-2.3,2.3-5.9,2.8-8.6,1.3c-0.2,0.2-2.1-1.7-3.1-2.7l0,0c-6.2-6.2-16.2-6.3-22.4,0l-30.6,30.6c-6.2,6.2-6.2,16.3,0,22.5l0,0c6.2,6.2,16.3,6.2,22.5,0l18.4-18.4c6.4,3.1,13.9,3.2,20.3,0.3L112.4,186.7L112.4,186.7L112.4,186.7z M186.7,112.4L156.2,143c-11.9,11.9-31.2,11.9-43.1,0c-0.3-0.3-0.6-0.7-0.9-1c-0.2-0.1-0.4-0.3-0.5-0.5c-0.5-0.5-0.9-1-1.2-1.6c0,0-0.1-0.1-0.1-0.1l0,0c-1.5-2.8-1-6.3,1.3-8.6c2.3-2.3,5.9-2.7,8.6-1.3c0.2-0.2,2.1,1.7,3.1,2.7l0,0c6.2,6.2,16.2,6.3,22.4,0l30.6-30.6c6.2-6.2,6.2-16.3,0-22.5l0,0c-6.2-6.2-16.3-6.2-22.5,0L135.5,98c-6.4-3.1-13.9-3.2-20.3-0.3l28.4-28.4c11.9-11.9,31.2-11.9,43.1,0C198.6,81.2,198.6,100.5,186.7,112.4L186.7,112.4L186.7,112.4z"/></g></g>
</svg>